<?xml version="1.0" standalone="no"?>
<!DOCTYPE svg PUBLIC "-//W3C//DTD SVG 1.1//EN" "http://www.w3.org/Graphics/SVG/1.1/DTD/svg11.dtd" >
<svg xmlns="http://www.w3.org/2000/svg" xmlns:xlink="http://www.w3.org/1999/xlink" version="1.1">
<metadata></metadata>
<defs>
<font id="reductocondsskregular" horiz-adv-x="837" >
<font-face units-per-em="2048" ascent="1638" descent="-410" />
<missing-glyph horiz-adv-x="380" />
<glyph horiz-adv-x="0" />
<glyph unicode="&#xd;" horiz-adv-x="380" />
<glyph unicode=" "  horiz-adv-x="380" />
<glyph unicode="&#x09;" horiz-adv-x="380" />
<glyph unicode="&#xa0;" horiz-adv-x="380" />
<glyph unicode="!" horiz-adv-x="444" d="M92 1473h262l-80 -1108h-102zM119 0v211h209v-211h-209z" />
<glyph unicode="&#x22;" horiz-adv-x="452" d="M8 1108v365h164v-365h-164zM279 1108v365h163v-365h-163z" />
<glyph unicode="#" horiz-adv-x="774" d="M18 444v125h121l45 334h-102v125h119l59 445h139l-59 -445h172l59 445h140l-60 -445h105v-125h-121l-45 -334h102v-125h-119l-59 -444h-139l59 444h-172l-59 -444h-140l60 444h-105zM279 569h172l45 334h-172z" />
<glyph unicode="$" horiz-adv-x="851" d="M68 416h208q0 -98 11 -131q18 -70 88 -86v475q-172 70 -230 145q-68 84 -67 262q0 156 72 265q78 119 225 139v155h104v-155q305 -37 305 -436h-209q0 92 -10 133q-20 72 -86 92v-416q193 -76 249 -154.5t56 -283.5q0 -401 -305 -432v-174h-104v174q-307 35 -307 428z M287 1083q0 -76 12 -106q19 -45 76 -74v371q-88 -33 -88 -191zM479 199q66 14 86 88q10 37 10 131q0 96 -10 127q-18 55 -86 84v-430z" />
<glyph unicode="%" horiz-adv-x="806" d="M61 1182v133q0 78 47.5 124t127.5 46q78 0 126 -46t48 -124v-133q0 -74 -49.5 -116t-124.5 -42q-76 0 -125.5 42t-49.5 116zM86 0l500 1473h135l-500 -1473h-135zM184 1202q0 -53 52 -53q51 0 51 53v105q0 55 -51 55t-52 -55v-105zM397 145v134q0 78 47.5 124t126.5 46 q78 0 126 -46.5t48 -123.5v-134q0 -74 -49 -115.5t-125 -41.5t-125 42t-49 115zM520 166q0 -53 51 -53q52 0 52 53v104q0 55 -52 56q-51 0 -51 -56v-104z" />
<glyph unicode="&#x26;" horiz-adv-x="894" d="M18 330q0 203 201 381q-127 182 -127 340q0 129 78 206.5t207 77.5q121 0 198.5 -73.5t77.5 -192.5q0 -176 -213 -371q61 -104 193 -307l112 156l129 -92l-155 -203l158 -252h-209l-70 113q-121 -125 -279 -125q-135 0 -221 104q-80 98 -80 238zM203 340q0 -74 41 -127 q45 -59 114 -59q86 0 156 88l-201 323q-111 -117 -110 -225zM276 1047q0 -82 80 -213q125 118 125 231q0 43 -28.5 74.5t-71.5 31.5q-47 0 -76 -37.5t-29 -86.5z" />
<glyph unicode="'" horiz-adv-x="245" d="M41 1108v365h164v-365h-164z" />
<glyph unicode="(" horiz-adv-x="407" d="M47 633q0 217 64 436q63 227 180 404h69q-104 -371 -104 -898q0 -401 104 -782h-69q-244 356 -244 840z" />
<glyph unicode=")" horiz-adv-x="415" d="M51 -207q104 371 105 897q0 401 -105 783h70q244 -357 244 -840q0 -217 -64 -436q-66 -227 -180 -404h-70z" />
<glyph unicode="*" d="M104 1020l205 113l-205 116l58 109l200 -125l-8 240h131l-8 -240l201 125l57 -109l-205 -116l205 -113l-57 -111l-201 125l8 -239h-131l8 239l-200 -125z" />
<glyph unicode="+" horiz-adv-x="1138" d="M51 440v166h436v441h164v-441h436v-166h-436v-440h-164v440h-436z" />
<glyph unicode="," horiz-adv-x="342" d="M66 -154v365h208v-211z" />
<glyph unicode="-" horiz-adv-x="739" d="M61 467v211h617v-211h-617z" />
<glyph unicode="." horiz-adv-x="333" d="M63 0v211h209v-211h-209z" />
<glyph unicode="/" horiz-adv-x="446" d="M6 -12l270 1497h164l-270 -1497h-164z" />
<glyph unicode="0" horiz-adv-x="763" d="M70 303v866q0 135 89 225.5t222 90.5q135 0 223 -90t88 -226v-866q0 -135 -88 -225t-223 -90q-133 0 -222 90t-89 225zM279 303q0 -43 29.5 -73.5t72.5 -30.5q45 0 73.5 30.5t28.5 73.5v866q0 43 -28.5 74t-73.5 31q-43 0 -72.5 -31t-29.5 -74v-866z" />
<glyph unicode="1" horiz-adv-x="763" d="M172 1094v223l209 156h209v-1473h-209v1249z" />
<glyph unicode="2" horiz-adv-x="763" d="M70 0v199l376 716q37 70 37 195q0 78 -12 111q-23 53 -90 53q-104 0 -105 -141q0 -14 3 -43v-41h-209v116q0 129 92 224.5t221 95.5q154 0 235 -113q74 -98 74 -258q0 -201 -133 -465q-121 -219 -244 -438h377v-211h-622z" />
<glyph unicode="3" horiz-adv-x="763" d="M70 422h209q0 -119 6 -141q18 -82 96 -82q102 0 102 118v211q0 88 -39 117q-31 20 -127 21v186q92 0 123 18q43 27 43 111v190q0 45 -28.5 74t-73.5 29q-80 0 -98 -80q-4 -18 -4 -143h-209v123q0 129 93 220t222 91q307 0 307 -416q0 -143 -10 -180q-23 -70 -119 -127 q98 -61 121 -144q8 -36 8 -194q0 -199 -53 -299q-74 -137 -260 -137q-188 0 -258 133q-51 96 -51 301z" />
<glyph unicode="4" horiz-adv-x="763" d="M18 219v199l301 1055h222l-314 -1055h207v420h209v-420h100v-199h-100v-219h-209v219h-416z" />
<glyph unicode="5" horiz-adv-x="763" d="M70 367h209q0 -80 14 -113q23 -55 92 -55q98 0 98 108v346q0 43 -27.5 75t-70.5 32q-68 0 -106 -82h-185v795h598v-199h-413v-397q74 70 174 69q115 0 177 -72.5t62 -189.5v-381q0 -135 -88 -225t-223 -90q-311 0 -311 379z" />
<glyph unicode="6" horiz-adv-x="763" d="M70 430q0 236 108 531q102 256 205 512h233l-237 -619l4 -4q43 18 88 18q158 0 203 -157q18 -70 18 -281q0 -205 -49 -303q-72 -139 -262 -139q-186 0 -258 139q-53 100 -53 303zM279 303q0 -43 29.5 -73.5t72.5 -30.5q45 0 73.5 30.5t28.5 73.5v275q0 43 -28.5 73.5 t-73.5 30.5q-43 0 -72.5 -30.5t-29.5 -73.5v-275z" />
<glyph unicode="7" horiz-adv-x="763" d="M70 1104v369h622v-211l-354 -1262h-221l366 1274h-229v-170h-184z" />
<glyph unicode="8" horiz-adv-x="763" d="M70 412q0 162 6 198q18 102 98 164q-74 59 -94 139q-10 43 -10 174q0 172 67 275q80 123 244 123q166 0 246 -123q66 -102 65 -275q0 -131 -10 -174q-18 -80 -94 -139q80 -61 98 -164q6 -36 6 -198q0 -424 -311 -424t-311 424zM279 301q0 -41 30.5 -71.5t71.5 -30.5 t71.5 30.5t30.5 71.5v291q0 41 -30.5 71.5t-71.5 30.5t-71.5 -30.5t-30.5 -71.5v-291zM279 956q0 -41 30.5 -72.5t71.5 -31.5q43 0 72.5 31.5t29.5 72.5v215q0 41 -30.5 72t-71.5 31t-71.5 -31t-30.5 -72v-215z" />
<glyph unicode="9" horiz-adv-x="763" d="M70 1042q0 205 51 304q72 139 260 139t260 -139q51 -101 51 -304q0 -233 -108 -530q-102 -256 -205 -512h-234l238 618l-4 5q-41 -18 -88 -19q-158 0 -201 158q-20 70 -20 280zM279 895q0 -43 29.5 -73.5t72.5 -30.5q45 0 73.5 30.5t28.5 73.5v274q0 43 -28.5 74 t-73.5 31q-43 0 -72.5 -31t-29.5 -74v-274z" />
<glyph unicode=":" horiz-adv-x="337" d="M63 0v211h209v-211h-209zM63 469v211h209v-211h-209z" />
<glyph unicode=";" horiz-adv-x="333" d="M63 -154v365h209v-211zM63 469v211h209v-211h-209z" />
<glyph unicode="&#x3c;" horiz-adv-x="1150" d="M57 461v125l1037 477v-166l-813 -373l813 -374v-166z" />
<glyph unicode="=" horiz-adv-x="1144" d="M55 233v166h1037v-166h-1037zM55 647v166h1037v-166h-1037z" />
<glyph unicode="&#x3e;" horiz-adv-x="1144" d="M53 -16v166l813 374l-813 373v166l1037 -477v-125z" />
<glyph unicode="?" horiz-adv-x="714" d="M43 1049v122q0 129 93 221.5t222 92.5q158 0 240 -111q72 -98 72 -260q0 -143 -54 -264q-20 -43 -100 -174q-55 -88 -55 -146v-165h-209v192q0 90 55 174q94 150 101 162q53 115 53 276q0 43 -30 74t-73 31q-82 0 -100 -80q-6 -23 -6 -145h-209zM252 0v211h209v-211h-209 z" />
<glyph unicode="@" horiz-adv-x="1583" d="M49 741q0 311 234 529q227 215 540 215q283 0 488 -166q221 -179 221 -453q0 -193 -135 -377q-145 -203 -332 -202q-145 0 -160 131h-4q-119 -131 -250 -131q-129 0 -211 92t-82 223q0 213 131 383q141 184 349 184q80 0 144.5 -44t90.5 -117h4l41 125h129l-110 -340 q-88 -279 -88 -322q0 -59 47 -59q113 0 202 172q76 147 76 272q0 215 -168 358q-162 135 -381 136q-248 0 -433 -185.5t-185 -433.5q0 -258 185.5 -432t443.5 -174q137 0 272 57q143 59 225 160h158q-100 -168 -289 -264q-178 -90 -383 -90q-322 0 -546 216t-224 537z M522 616q0 -82 45 -131t125 -49q117 0 213 152q84 135 84 260q0 74 -39 123t-112 49q-129 0 -228 -139q-88 -129 -88 -265z" />
<glyph unicode="A" d="M6 0l326 1473h174l325 -1473h-208l-62 317h-285l-61 -317h-209zM313 514h209l-102 535h-4z" />
<glyph unicode="B" horiz-adv-x="827" d="M76 0v1473h305q371 0 371 -426q0 -100 -31 -162t-113 -111q98 -47 129 -160q15 -61 15 -213q0 -401 -392 -401h-284zM285 211h90q115 0 153 72q27 49 27 176q0 115 -29 159q-37 63 -149 64h-92v-471zM285 868h94q100 0 141 56q35 47 35 151q0 199 -184 199h-86v-406z" />
<glyph unicode="C" horiz-adv-x="798" d="M61 336v811q0 145 96.5 241.5t243.5 96.5q336 0 336 -434h-209q0 100 -16 145q-29 78 -113 78q-129 0 -129 -172v-752q0 -151 125 -151h2q88 0 115 73q16 41 16 148h209v-90q0 -137 -98 -239.5t-233 -102.5q-162 0 -253.5 92t-91.5 256z" />
<glyph unicode="D" horiz-adv-x="829" d="M78 0v1473h309q176 0 271.5 -102.5t95.5 -278.5v-689q0 -403 -385 -403h-291zM287 199h96q162 0 162 184v709q0 182 -162 182h-96v-1075z" />
<glyph unicode="E" horiz-adv-x="710" d="M45 0v1473h623v-199h-414v-432h360v-199h-360v-432h414v-211h-623z" />
<glyph unicode="F" horiz-adv-x="739" d="M74 0v1473h622v-199h-413v-447h360v-198h-360v-629h-209z" />
<glyph unicode="G" horiz-adv-x="815" d="M57 348v776q0 156 98.5 258.5t252.5 102.5q350 0 350 -434h-209q0 109 -19 151q-29 72 -122 72q-66 0 -104 -42t-38 -108v-776q0 -66 38 -107.5t104 -41.5t103.5 42t37.5 107v277h-166v186h375v-463q0 -154 -98.5 -257t-251.5 -103q-154 0 -252.5 103.5t-98.5 256.5z" />
<glyph unicode="H" horiz-adv-x="835" d="M80 0v1473h209v-631h258v631h209v-1473h-209v655h-258v-655h-209z" />
<glyph unicode="I" horiz-adv-x="374" d="M82 0v1473h209v-1473h-209z" />
<glyph unicode="J" horiz-adv-x="819" d="M96 121l164 131q53 -53 115 -53q70 0 108 55q33 49 33 123v1096h209v-1125q0 -156 -100.5 -258t-255.5 -102q-158 0 -273 133z" />
<glyph unicode="K" horiz-adv-x="925" d="M117 0v1473h209v-672h4l305 672h209l-285 -590l338 -883h-221l-238 653q-125 -121 -125 -479q0 -100 13 -174h-209z" />
<glyph unicode="L" horiz-adv-x="745" d="M76 0v1473h209v-1262h413v-211h-622z" />
<glyph unicode="M" horiz-adv-x="1101" d="M80 0v1473h201l268 -781h4l266 781h203v-1473h-209v895h-4l-207 -633h-104l-205 633h-4v-895h-209z" />
<glyph unicode="N" horiz-adv-x="987" d="M129 0v1473h201l315 -887h4v887h209v-1473h-196l-320 885h-4v-885h-209z" />
<glyph unicode="O" horiz-adv-x="827" d="M63 348v776q0 156 98.5 258.5t252.5 102.5t252 -102.5t98 -258.5v-776q0 -154 -98.5 -257t-251.5 -103q-154 0 -252.5 103.5t-98.5 256.5zM272 348q0 -66 38 -107.5t104 -41.5t103.5 41.5t37.5 107.5v776q0 66 -38 108t-103 42q-66 0 -104 -42t-38 -108v-776z" />
<glyph unicode="P" horiz-adv-x="786" d="M55 0v1473h314q205 0 290 -127q74 -107 74 -322q0 -262 -106 -358q-98 -90 -363 -91v-575h-209zM264 774h101q117 0 149 72q23 43 23 176q0 131 -21 174q-33 78 -143 78h-109v-500z" />
<glyph unicode="Q" horiz-adv-x="899" d="M72 348v776q0 156 98 258.5t252 102.5t252 -102.5t98 -258.5v-776q0 -88 -31 -151l129 -107l-106 -127l-123 100q-93 -75 -216 -75h-3q-154 0 -252 103.5t-98 256.5zM281 348q0 -66 37.5 -107.5t103.5 -41.5q27 0 45 8l-94 76l106 129l84 -68v780q0 66 -38 108t-103 42 q-66 0 -103.5 -42t-37.5 -108v-776z" />
<glyph unicode="R" horiz-adv-x="880" d="M88 0v1473h336q369 0 369 -433q0 -266 -181 -368l226 -672h-222l-194 629h-125v-629h-209zM297 815h119q106 0 141 66q27 46 27 163q0 119 -29 166q-39 63 -149 64h-109v-459z" />
<glyph unicode="S" horiz-adv-x="802" d="M43 416h209q0 -106 20 -150q31 -67 124 -67h3q100 0 131 65q20 41 21 154q0 166 -129 231q-119 55 -240 111q-129 92 -129 321q0 176 90 285q96 119 269 119q348 0 348 -436h-209q0 104 -23 153q-33 72 -125 72q-141 0 -141 -191q0 -152 129 -206q121 -49 240 -101 q129 -98 129 -356q0 -432 -361 -432q-356 0 -356 428z" />
<glyph unicode="T" horiz-adv-x="790" d="M63 1274v199h693v-199h-242v-1274h-209v1274h-242z" />
<glyph unicode="U" horiz-adv-x="835" d="M80 332v1141h209v-1121q0 -153 127 -153h2q129 0 129 153v1121h209v-1141q0 -141 -98.5 -242.5t-239.5 -101.5t-239.5 101t-98.5 243z" />
<glyph unicode="V" horiz-adv-x="878" d="M35 1473h221l166 -1029h4l168 1029h221l-299 -1473h-184z" />
<glyph unicode="W" horiz-adv-x="1245" d="M27 1473h221l104 -934h4l164 934h160l170 -959h4l100 959h222l-218 -1473h-196l-160 956h-4l-158 -956h-196z" />
<glyph unicode="X" horiz-adv-x="847" d="M6 0l295 772l-272 701h221l158 -437l159 437h221l-278 -701l301 -772h-221l-182 496l-181 -496h-221z" />
<glyph unicode="Y" d="M27 1473h221l168 -586h4l168 586h221q-78 -211 -158 -422q-98 -266 -129 -428q-14 -76 -14 -197q0 -76 7 -223.5t7 -202.5h-209q0 55 7.5 202.5t7.5 223.5q0 121 -15 197q-31 162 -129 428q-80 211 -157 422z" />
<glyph unicode="Z" horiz-adv-x="679" d="M29 0v186l393 1088h-373v199h600v-168l-401 -1106h401v-199h-620z" />
<glyph unicode="[" horiz-adv-x="374" d="M29 -207v1680h319v-123h-135v-1432h135v-125h-319z" />
<glyph unicode="\" horiz-adv-x="440" d="M4 1485h164l270 -1497h-164z" />
<glyph unicode="]" horiz-adv-x="555" d="M119 -82h135v1432h-135v123h319v-1680h-319v125z" />
<glyph unicode="^" horiz-adv-x="1134" d="M55 586l445 887h135l444 -887h-164l-348 700l-348 -700h-164z" />
<glyph unicode="_" horiz-adv-x="921" d="M-51 -156h1024v-102h-1024v102z" />
<glyph unicode="`" horiz-adv-x="487" d="M41 1479h221l184 -291h-135z" />
<glyph unicode="a" horiz-adv-x="743" d="M53 266q0 209 82 285q71 67 249 67h5q41 0 94 -2v111q0 123 -104 123q-45 0 -78 -29.5t-41 -75.5h-203q8 141 95.5 228.5t226.5 87.5q145 0 229 -91t84 -239v-731h-209v109h-4q-86 -121 -200 -121q-225 0 -226 278zM262 307q0 -133 109 -133q112 0 112 133v144 q-35 6 -57 6q-164 0 -164 -150z" />
<glyph unicode="b" horiz-adv-x="741" d="M57 0v1473h209v-519h4q72 106 193 107q150 0 194 -113q25 -61 25 -237v-398q0 -152 -33 -223q-49 -102 -184 -102q-102 0 -199 106v-94h-209zM266 330q0 -53 26.5 -92t78.5 -39q102 0 102 143v385q0 123 -102 123q-45 0 -75 -33t-30 -80v-407z" />
<glyph unicode="c" horiz-adv-x="733" d="M55 352v344q0 365 312 365q143 0 227 -94.5t84 -239.5h-209q0 123 -102 123t-103 -119v-430q0 -102 103 -102q94 0 102 104h209q0 -137 -87 -226t-224 -89q-311 0 -312 364z" />
<glyph unicode="d" horiz-adv-x="876" d="M125 313v398q0 176 27 237q43 113 192 113q123 0 193 -107h4v519h209v-1473h-209v94q-94 -106 -199 -106q-135 0 -184 102q-33 72 -33 223zM334 342q0 -143 102 -143q51 0 78 39t27 92v407q0 47 -29 80t-76 33q-102 0 -102 -123v-385z" />
<glyph unicode="e" horiz-adv-x="722" d="M51 352v344q0 365 311 365q139 0 225.5 -92t86.5 -234v-291h-414v-143q0 -102 102 -102q92 0 103 104h209q0 -137 -88 -226t-224 -89q-311 0 -311 364zM260 610h205v121q0 119 -103 119q-102 0 -102 -119v-121z" />
<glyph unicode="f" horiz-adv-x="577" d="M70 883v166h102q0 211 33 288q55 135 235 136h97v-199q-10 0 -33 2h-35q-88 0 -88 -74v-153h156v-166h-156v-883h-209v883h-102z" />
<glyph unicode="g" horiz-adv-x="743" d="M66 -123h208q2 -45 34 -73.5t77 -28.5q96 0 96 112v207h-4q-72 -106 -194 -106q-135 0 -185 104q-32 68 -32 212v9v398q0 176 24 237q45 113 195 113q102 0 196 -107v95h209v-1178q0 -135 -88 -221t-225 -86q-133 0 -219 90q-78 86 -92 223zM274 324q0 -125 103 -125 q47 0 75.5 33.5t28.5 80.5v406q0 53 -26.5 92t-77.5 39q-102 0 -103 -143v-383z" />
<glyph unicode="h" horiz-adv-x="815" d="M102 0v1473h209v-525h4q74 113 197 113q106 0 164 -78q51 -68 51 -178v-805h-209v727q0 123 -102 123q-104 0 -105 -145v-705h-209z" />
<glyph unicode="i" horiz-adv-x="337" d="M63 0v1049h209v-1049h-209zM63 1262v211h209v-211h-209z" />
<glyph unicode="j" horiz-adv-x="534" d="M98 -225h6q81 0 107 57q18 37 18 135v1082h209v-1162q0 -150 -94 -230.5t-246 -80.5v199zM229 1262v211h209v-211h-209z" />
<glyph unicode="k" horiz-adv-x="884" d="M94 0v1473h209v-881h4l252 457h209l-248 -426l299 -623h-227l-189 453l-100 -160v-293h-209z" />
<glyph unicode="l" horiz-adv-x="419" d="M84 281v1192h209v-1178q0 -57 22.5 -79.5t79.5 -29.5v-198q-166 0 -235 61q-76 68 -76 232z" />
<glyph unicode="m" horiz-adv-x="1175" d="M68 0v1049h208v-101h5q74 113 196 113q111 0 187 -105q92 104 217 105q109 0 168 -73t59 -183v-805h-209v727q0 123 -102 123q-104 0 -105 -145v-705h-209v727q0 123 -102 123q-104 0 -105 -145v-705h-208z" />
<glyph unicode="n" horiz-adv-x="759" d="M68 0v1049h208v-101h5q74 113 196 113q106 0 164 -78q51 -68 51 -178v-805h-209v727q0 123 -102 123q-104 0 -105 -145v-705h-208z" />
<glyph unicode="o" horiz-adv-x="729" d="M53 352v344q0 365 312 365q311 0 311 -365v-344q0 -364 -309 -364h-2q-311 0 -312 364zM262 319q0 -120 101 -120h2h2q100 0 100 120v412q0 119 -102 119t-103 -119v-412z" />
<glyph unicode="p" horiz-adv-x="741" d="M59 -424v1473h209v-95q94 106 199 107q133 0 182 -103q35 -70 35 -221v-399q0 -176 -27 -238q-45 -112 -189 -112h-3q-123 0 -193 106h-4v-518h-209zM268 313q0 -47 29 -80.5t76 -33.5q102 0 102 125v383q0 143 -102 143q-51 0 -78 -39t-27 -92v-406z" />
<glyph unicode="q" horiz-adv-x="876" d="M125 338v399q0 152 35 221q49 102 182 103q104 0 199 -107v95h209v-1473h-209v518h-4q-70 -106 -193 -106q-147 0 -192 112q-27 61 -27 238zM334 324q0 -125 102 -125q47 0 76 33.5t29 80.5v406q0 53 -27 92t-78 39q-102 0 -102 -143v-383z" />
<glyph unicode="r" horiz-adv-x="538" d="M27 0v1049h209v-111q139 123 276 123v-223q-31 12 -63 12q-96 0 -154.5 -64.5t-58.5 -162.5v-623h-209z" />
<glyph unicode="s" horiz-adv-x="700" d="M39 303h197q16 -117 112 -117q47 0 82 33t35 80q0 82 -109 129q-184 84 -200 94q-106 78 -107 234q0 129 89 217t218 88q127 0 210 -89t85 -216h-196q-2 47 -32 76.5t-75 29.5q-43 0 -72.5 -30.5t-29.5 -73.5q0 -72 106 -117q170 -72 201 -96q109 -82 109 -242 q0 -131 -90.5 -223t-221.5 -92q-137 0 -221 88t-90 227z" />
<glyph unicode="t" horiz-adv-x="458" d="M8 883v166h105v319h209v-319h129v-166h-129v-582q0 -68 32 -88q25 -14 97 -14v-199h-86q-113 0 -182.5 66.5t-69.5 179.5v637h-105z" />
<glyph unicode="u" horiz-adv-x="874" d="M125 244v805h209v-725q0 -125 102 -125q104 0 105 145v705h209v-1049h-209v100h-4q-73 -112 -195 -112h-2q-106 0 -164 78q-51 68 -51 178z" />
<glyph unicode="v" horiz-adv-x="823" d="M55 1049h221l140 -670h4l139 670h221l-270 -1049h-184z" />
<glyph unicode="w" horiz-adv-x="1159" d="M33 1049h221l127 -652h4l117 652h164l110 -652h4l125 652h221l-245 -1049h-185l-114 623h-4l-115 -623h-184z" />
<glyph unicode="x" horiz-adv-x="821" d="M41 0l256 537l-244 512h221l129 -297l129 297h222l-248 -512l260 -537h-221l-142 322l-141 -322h-221z" />
<glyph unicode="y" horiz-adv-x="772" d="M45 1049h221l144 -654h4l141 654h215l-299 -1231q-35 -143 -121 -197q-74 -45 -225 -45v199h47q63 0 115 90q47 78 47 153q0 16 -4 29z" />
<glyph unicode="z" horiz-adv-x="643" d="M35 0v168l338 694h-312v187h549v-168l-338 -682h338v-199h-575z" />
<glyph unicode="{" horiz-adv-x="536" d="M47 573v123q78 0 105 80q23 59 22 193q0 23 -2 69v72q0 172 33 250q47 113 174 113h110v-123q-139 0 -139 -222q0 -37 4 -116.5t4 -118.5q0 -233 -137 -258v-4q137 -25 137 -256q0 -39 -4 -120t-4 -120q0 -217 139 -217v-125h-110q-127 0 -174 113q-33 80 -33 254v69.5 v69.5q0 133 -20 193q-27 82 -105 81z" />
<glyph unicode="|" horiz-adv-x="372" d="M104 -12v1497h164v-1497h-164z" />
<glyph unicode="}" horiz-adv-x="528" d="M43 -82q139 0 139 217q0 39 -4 120t-4 120q0 231 137 256v4q-137 25 -137 258q0 39 4 119t4 116q0 221 -139 222v123h111q127 0 174 -113q33 -78 32 -250q0 -25 -2 -72v-69q0 -133 21 -193q29 -80 106 -80v-123q-78 0 -106 -81q-20 -59 -21 -193v-70q2 -47 2 -69 q0 -174 -32 -254q-47 -113 -174 -113h-111v125z" />
<glyph unicode="~" horiz-adv-x="1146" d="M100 496q92 180 256 180q80 0 232.5 -70.5t204.5 -70.5q84 0 180 147l74 -133q-92 -180 -256 -180q-80 0 -232.5 70.5t-204.5 70.5q-82 0 -180 -145z" />
<glyph unicode="&#xa1;" horiz-adv-x="409" d="M74 -424l80 1108h102l80 -1108h-262zM100 838v211h209v-211h-209z" />
<glyph unicode="&#xa2;" horiz-adv-x="802" d="M90 346v354q0 334 266 361v156h84v-156q129 -10 201 -105.5t72 -228.5h-209q0 100 -64 123v-651q55 18 64 104h209q0 -125 -75 -215t-198 -100v-174h-84v174q-266 20 -266 358zM299 293q0 -74 57 -94v651q-57 -23 -57 -111v-446z" />
<glyph unicode="&#xa3;" horiz-adv-x="829" d="M37 616v148h113q-78 145 -78 313q0 174 75 283q88 125 256 125q303 0 304 -430h-197q0 115 -10 147q-20 84 -103 84q-129 0 -129 -211q0 -139 66 -311h237v-148h-190q37 -100 37 -182q0 -111 -66 -225q158 -23 168 -23q80 0 135 66l140 -141q-88 -123 -228 -123 q-59 0 -175 19.5t-173 19.5q-90 0 -162 -33v178q57 33 131 41q55 82 56 180q0 102 -47 223h-160z" />
<glyph unicode="&#xa4;" horiz-adv-x="851" d="M53 442l86 88q-72 76 -71 207q0 127 69 207l-84 86l84 84l84 -86q80 70 205 70q127 0 207 -70l84 86l82 -84l-84 -84q70 -84 69 -209q0 -131 -69 -207l84 -86l-84 -84l-84 84q-76 -70 -205 -69q-127 0 -205 71l-84 -86zM203 737q0 -92 65.5 -159.5t157.5 -67.5 t157.5 67.5t65.5 159.5t-65.5 159t-157.5 67t-157.5 -67t-65.5 -159z" />
<glyph unicode="&#xa5;" horiz-adv-x="839" d="M47 1473h209l162 -586h4l162 586h209l-242 -742h201v-137h-234v-102h234v-136h-234v-356h-196v356h-234v136h234v102h-234v137h201z" />
<glyph unicode="&#xa6;" horiz-adv-x="372" d="M104 -12v569h164v-569h-164zM104 915v570h164v-570h-164z" />
<glyph unicode="&#xa7;" horiz-adv-x="817" d="M96 537q0 160 25 221q39 92 164 131q-92 47 -123 112q-25 51 -25 166q0 137 72 224q76 94 209 94q164 0 229 -117q47 -86 47 -262h-174q0 102 -8 135q-20 78 -94 78q-106 0 -107 -150q0 -125 107 -186q186 -109 196 -117q105 -102 105 -329q0 -152 -23 -205 q-33 -74 -155 -129q100 -51 131 -117q23 -51 22 -174q0 -348 -284 -348q-170 0 -240 114q-53 90 -53 269h174q0 -102 12 -140q23 -78 100 -77q117 0 117 159q0 141 -105.5 197.5t-207.5 110.5q-111 100 -111 340zM305 440q0 -43 30 -75.5t73 -32.5t72.5 32.5t29.5 75.5v205 q0 43 -29.5 77t-72.5 34t-73 -34t-30 -77v-205z" />
<glyph unicode="&#xa8;" horiz-adv-x="579" d="M31 1212v211h184v-211h-184zM362 1212v211h185v-211h-185z" />
<glyph unicode="&#xa9;" horiz-adv-x="1564" d="M41 737q0 307 217 527.5t524 220.5t524.5 -220.5t217.5 -527.5t-217 -528t-525 -221q-307 0 -524 221t-217 528zM188 737q0 -250 173.5 -431t420.5 -181q248 0 421 181t173 431q0 248 -173 430.5t-421 182.5q-246 0 -420 -182.5t-174 -430.5zM371 737q0 203 116.5 335 t315.5 132q147 0 248.5 -85t119.5 -228h-135q-18 78 -83.5 127t-147.5 49q-133 0 -213 -98q-74 -90 -74 -228q0 -131 78 -229q84 -104 213 -104q84 0 148.5 52t78.5 134h135q-27 -139 -125 -231.5t-237 -92.5q-197 0 -320 138q-119 131 -118 329z" />
<glyph unicode="&#xaa;" horiz-adv-x="581" d="M74 1010q0 125 57 174q49 43 160 43q31 0 69 -2v49q0 76 -67 76q-68 0 -76 -64h-135q6 92 62.5 145.5t148.5 53.5t153.5 -54.5t61.5 -144.5v-438h-148v63h-4q-55 -72 -129 -71q-154 0 -153 170zM221 1032q0 -59 66 -59q73 -1 73 69v76q-29 4 -36 4q-102 0 -103 -90z" />
<glyph unicode="&#xab;" horiz-adv-x="954" d="M80 573l416 418v-211l-207 -207l207 -206v-211zM459 573l415 418v-211l-206 -207l206 -206v-211z" />
<glyph unicode="&#xac;" horiz-adv-x="1271" d="M117 647v166h1036v-580h-164v414h-872z" />
<glyph unicode="&#xad;" horiz-adv-x="739" d="M61 467v211h617v-211h-617z" />
<glyph unicode="&#xae;" horiz-adv-x="1564" d="M41 737q0 307 217 527.5t524 220.5t524.5 -220.5t217.5 -527.5t-217 -528t-525 -221q-307 0 -524 221t-217 528zM188 737q0 -250 173.5 -431t420.5 -181q248 0 421 181t173 431q0 248 -173 430.5t-421 182.5q-246 0 -420 -182.5t-174 -430.5zM502 299v875h327 q297 0 297 -248q0 -217 -221 -244l248 -383h-164l-248 379h-104v-379h-135zM637 803h154q200 0 200 131q0 115 -157 115h-197v-246z" />
<glyph unicode="&#xaf;" horiz-adv-x="575" d="M8 1255v125h561v-125h-561z" />
<glyph unicode="&#xb0;" horiz-adv-x="622" d="M82 1253q0 96 66.5 164t162.5 68t163 -68t67 -164t-66.5 -163.5t-163.5 -67.5q-96 0 -162.5 67.5t-66.5 163.5zM186 1253q0 -51 37 -89t88 -38t88 38t37 89t-37 89t-88 38t-88 -37.5t-37 -89.5z" />
<glyph unicode="&#xb1;" horiz-adv-x="1155" d="M59 0v166h1037v-166h-1037zM59 549v164h437v334h163v-334h437v-164h-437v-334h-163v334h-437z" />
<glyph unicode="&#xb2;" horiz-adv-x="600" d="M74 594v111l262 440q25 41 24 127q0 27 -18 45t-45 18q-45 0 -55 -45q-4 -14 -4 -82h-164v74q0 90 67.5 146.5t157.5 56.5q225 0 225 -256q0 -94 -96 -258q-72 -115 -145 -228h241v-149h-450z" />
<glyph unicode="&#xb3;" horiz-adv-x="604" d="M76 850h164q0 -57 6 -76q12 -39 55 -39q25 0 43 18.5t18 43.5v106q0 51 -26 68q-20 10 -78 10v135q86 0 100 37q4 10 4 121q0 61 -61 61q-43 0 -55 -39q-6 -18 -6 -75h-164v65q0 92 71 148q63 51 158 51q135 0 184 -86q37 -63 37 -205q0 -98 -84 -143q84 -49 84 -152 v-104q0 -96 -63.5 -152.5t-161.5 -56.5q-131 0 -182 69q-43 57 -43 195z" />
<glyph unicode="&#xb4;" horiz-adv-x="499" d="M47 1188l184 291h222l-271 -291h-135z" />
<glyph unicode="&#xb5;" horiz-adv-x="874" d="M125 -424v1473h209v-725q0 -125 102 -125q104 0 105 145v705h209v-1049h-209v100h-4q-53 -113 -136 -112q-31 0 -63 20h-4v-432h-209z" />
<glyph unicode="&#xb6;" horiz-adv-x="997" d="M100 1075q0 199 125 301q119 96 322 97h352v-1897h-147v1792h-148v-1792h-147v1114q-147 0 -252 119t-105 266z" />
<glyph unicode="&#xb7;" horiz-adv-x="450" d="M94 616q0 53 39 93.5t92 40.5t92 -40.5t39 -93.5t-38.5 -93t-92.5 -40q-53 0 -92 40t-39 93z" />
<glyph unicode="&#xb8;" horiz-adv-x="370" d="M-37 -424l35 86q82 -31 133 -31q111 0 111 86q0 35 -28 56.5t-64 21.5q-41 0 -80 -14l-35 41l133 178h94l-94 -125q41 4 63 4q78 0 126.5 -39.5t48.5 -113.5q0 -92 -82 -144q-72 -45 -170 -45q-84 0 -191 39z" />
<glyph unicode="&#xb9;" horiz-adv-x="559" d="M129 1235v149l135 89h164v-879h-164v729z" />
<glyph unicode="&#xba;" horiz-adv-x="569" d="M76 1044v236q0 92 58.5 148.5t150.5 56.5t150.5 -56.5t58.5 -148.5v-236q0 -92 -58.5 -148t-150.5 -56t-150.5 56t-58.5 148zM223 1047q0 -70 62 -70q61 0 61 70v229q0 74 -61 74t-62 -74v-229z" />
<glyph unicode="&#xbb;" horiz-adv-x="929" d="M68 156v211l206 206l-206 207v211l415 -418zM446 156v211l207 206l-207 207v211l416 -418z" />
<glyph unicode="&#xbc;" horiz-adv-x="1214" d="M61 1235v149l136 89h163v-879h-163v729zM76 -35l895 1542h123l-895 -1542h-123zM635 129v127l201 627h163l-192 -619h121v238h164v-238h61v-135h-61v-129h-164v129h-293z" />
<glyph unicode="&#xbd;" horiz-adv-x="1216" d="M63 1235v149l136 89h163v-879h-163v729zM78 -35l895 1542h123l-895 -1542h-123zM700 0v113l267 438q25 41 24 127q0 27 -19.5 46t-43.5 19q-49 0 -62 -45q-2 -14 -2 -84h-164v74q0 90 70 150q66 53 160 53q225 0 225 -256q0 -94 -96 -258q-74 -115 -146 -227h242v-150 h-455z" />
<glyph unicode="&#xbe;" horiz-adv-x="1214" d="M61 850h164q0 -57 6 -76q12 -39 56 -39q25 0 43 18.5t18 43.5v106q0 51 -26 68q-20 10 -78 10v135q86 0 100 37q4 10 4 121q0 61 -61 61q-45 0 -56 -39q-6 -18 -6 -75h-164v65q0 92 68 145.5t162 53.5q135 0 184 -86q37 -63 37 -205q0 -98 -84 -143q84 -49 84 -152v-104 q0 -96 -63.5 -152.5t-161.5 -56.5q-133 0 -183 69q-43 57 -43 195zM115 -35l895 1542h123l-895 -1542h-123zM635 129v127l201 627h163l-192 -619h121v238h164v-238h61v-135h-61v-129h-164v129h-293z" />
<glyph unicode="&#xbf;" horiz-adv-x="632" d="M4 -66q0 143 53 265q18 41 101 174q55 88 55 147v164h209v-192q0 -88 -55 -173q-94 -147 -101 -161q-53 -115 -53 -279q0 -43 29.5 -73.5t72.5 -30.5q82 0 101 80q6 23 6 145h209v-123q0 -129 -93.5 -221t-222.5 -92q-158 0 -239 110q-72 98 -72 260zM213 838v211h209 v-211h-209z" />
<glyph unicode="&#xc0;" d="M6 0l326 1473h174l325 -1473h-208l-62 317h-285l-61 -317h-209zM147 1831h222l184 -291h-135zM313 514h209l-102 535h-4z" />
<glyph unicode="&#xc1;" d="M6 0l326 1473h174l325 -1473h-208l-62 317h-285l-61 -317h-209zM287 1540l184 291h221l-270 -291h-135zM313 514h209l-102 535h-4z" />
<glyph unicode="&#xc2;" d="M6 0l326 1473h174l325 -1473h-208l-62 317h-285l-61 -317h-209zM123 1540l201 291h192l201 -291h-160l-137 197l-137 -197h-160zM313 514h209l-102 535h-4z" />
<glyph unicode="&#xc3;" d="M6 0l326 1473h174l325 -1473h-208l-62 317h-285l-61 -317h-209zM72 1559q45 229 207 229q51 0 149 -41t145 -41q88 0 91 92h104q-43 -229 -207 -229q-49 0 -148.5 41t-146.5 41q-86 0 -90 -92h-104zM313 514h209l-102 535h-4z" />
<glyph unicode="&#xc4;" d="M6 0l326 1473h174l325 -1473h-208l-62 317h-285l-61 -317h-209zM162 1565v211h184v-211h-184zM313 514h209l-102 535h-4zM494 1565v211h184v-211h-184z" />
<glyph unicode="&#xc5;" d="M6 0l326 1473h174l325 -1473h-208l-62 317h-285l-61 -317h-209zM211 1729q0 86 61.5 147t147.5 61t147.5 -62t61.5 -146q0 -86 -61.5 -148.5t-147.5 -62.5t-147.5 62t-61.5 149zM295 1729q0 -53 37 -90t88 -37q53 0 89 37t36 90q0 51 -36 87.5t-89 36.5q-51 0 -88 -36.5 t-37 -87.5zM313 514h209l-102 535h-4z" />
<glyph unicode="&#xc6;" horiz-adv-x="1329" d="M59 0l414 1473h797v-199h-414v-432h361v-199h-361v-432h414v-211h-623v317h-287l-79 -317h-222zM410 514h237v760h-49z" />
<glyph unicode="&#xc7;" horiz-adv-x="798" d="M61 336v811q0 145 96.5 241.5t243.5 96.5q336 0 336 -434h-209q0 100 -16 145q-29 78 -113 78q-129 0 -129 -172v-752q0 -152 127 -151q88 0 115 73q16 41 16 148h209v-90q0 -121 -77.5 -218.5t-194.5 -119.5l-88 -117l63 4q74 4 124 -38t50 -115q0 -92 -84 -144 q-70 -45 -168 -45q-86 0 -190 39l35 86q80 -31 133 -31q111 0 111 86q0 76 -99 76q-41 0 -73 -12l-35 41l125 166q-150 12 -229 104t-79 244z" />
<glyph unicode="&#xc8;" horiz-adv-x="710" d="M45 0v1473h623v-199h-414v-432h360v-199h-360v-432h414v-211h-623zM74 1831h221l184 -291h-135z" />
<glyph unicode="&#xc9;" horiz-adv-x="710" d="M45 0v1473h623v-199h-414v-432h360v-199h-360v-432h414v-211h-623zM213 1540l184 291h221l-270 -291h-135z" />
<glyph unicode="&#xca;" horiz-adv-x="710" d="M45 0v1473h623v-199h-414v-432h360v-199h-360v-432h414v-211h-623zM49 1540l201 291h192l201 -291h-160l-137 197l-137 -197h-160z" />
<glyph unicode="&#xcb;" horiz-adv-x="710" d="M45 0v1473h623v-199h-414v-432h360v-199h-360v-432h414v-211h-623zM88 1565v211h184v-211h-184zM420 1565v211h184v-211h-184z" />
<glyph unicode="&#xcc;" horiz-adv-x="514" d="M53 1831h221l185 -291h-135zM221 0v1473h209v-1473h-209z" />
<glyph unicode="&#xcd;" horiz-adv-x="370" d="M-18 1540l184 291h221l-270 -291h-135zM10 0v1473h209v-1473h-209z" />
<glyph unicode="&#xce;" horiz-adv-x="374" d="M-111 1540l201 291h193l200 -291h-159l-138 197l-137 -197h-160zM82 0v1473h209v-1473h-209z" />
<glyph unicode="&#xcf;" horiz-adv-x="374" d="M-72 1565v211h185v-211h-185zM82 0v1473h209v-1473h-209zM260 1565v211h184v-211h-184z" />
<glyph unicode="&#xd0;" horiz-adv-x="944" d="M86 725v135h98v613h310q174 0 270 -102.5t96 -278.5v-689q0 -403 -385 -403h-291v725h-98zM393 199h96q162 0 162 184v709q0 182 -162 182h-96v-414h144v-135h-144v-526z" />
<glyph unicode="&#xd1;" horiz-adv-x="987" d="M129 0v1473h201l315 -887h4v887h209v-1473h-196l-320 885h-4v-885h-209zM145 1559q45 229 207 229q51 0 149.5 -41t145.5 -41q86 0 90 92h105q-45 -229 -207 -229q-49 0 -149.5 41t-145.5 41q-86 0 -90 -92h-105z" />
<glyph unicode="&#xd2;" horiz-adv-x="940" d="M121 348v776q0 156 97 258.5t253 102.5q154 0 252 -102.5t98 -258.5v-776q0 -154 -99 -257t-251 -103q-154 0 -252 103.5t-98 256.5zM199 1831h221l184 -291h-135zM330 348q0 -66 38 -107.5t103 -41.5q66 0 103.5 41.5t37.5 107.5v776q0 66 -37.5 108t-103.5 42 t-103.5 -42t-37.5 -108v-776z" />
<glyph unicode="&#xd3;" horiz-adv-x="827" d="M63 348v776q0 156 98.5 258.5t252.5 102.5t252 -102.5t98 -258.5v-776q0 -154 -98.5 -257t-251.5 -103q-154 0 -252.5 103.5t-98.5 256.5zM272 348q0 -66 38 -107.5t104 -41.5t103.5 41.5t37.5 107.5v776q0 66 -38 108t-103 42q-66 0 -104 -42t-38 -108v-776zM281 1540 l184 291h221l-270 -291h-135z" />
<glyph unicode="&#xd4;" horiz-adv-x="827" d="M63 348v776q0 156 98.5 258.5t252.5 102.5t252 -102.5t98 -258.5v-776q0 -154 -98.5 -257t-251.5 -103q-154 0 -252.5 103.5t-98.5 256.5zM117 1540l200 291h193l201 -291h-160l-137 197l-138 -197h-159zM272 348q0 -66 38 -107.5t104 -41.5t103.5 41.5t37.5 107.5v776 q0 66 -38 108t-103 42q-66 0 -104 -42t-38 -108v-776z" />
<glyph unicode="&#xd5;" horiz-adv-x="827" d="M63 348v776q0 156 98.5 258.5t252.5 102.5t252 -102.5t98 -258.5v-776q0 -154 -98.5 -257t-251.5 -103q-154 0 -252.5 103.5t-98.5 256.5zM66 1559q45 229 206 229q51 0 149.5 -41t145.5 -41q88 0 90 92h105q-45 -229 -207 -229q-49 0 -149.5 41t-145.5 41q-86 0 -90 -92 h-104zM272 348q0 -66 38 -107.5t104 -41.5t103.5 41.5t37.5 107.5v776q0 66 -38 108t-103 42q-66 0 -104 -42t-38 -108v-776z" />
<glyph unicode="&#xd6;" horiz-adv-x="940" d="M121 348v776q0 156 97 258.5t253 102.5q154 0 252 -102.5t98 -258.5v-776q0 -154 -99 -257t-251 -103q-154 0 -252 103.5t-98 256.5zM213 1565v211h184v-211h-184zM330 348q0 -66 38 -107.5t103 -41.5q66 0 103.5 41.5t37.5 107.5v776q0 66 -37.5 108t-103.5 42 t-103.5 -42t-37.5 -108v-776zM545 1565v211h184v-211h-184z" />
<glyph unicode="&#xd7;" horiz-adv-x="1155" d="M100 160l363 364l-363 365l117 117l361 -365l362 365l115 -117l-361 -365l361 -364l-115 -119l-362 367l-361 -367z" />
<glyph unicode="&#xd8;" horiz-adv-x="966" d="M68 -33l102 213q-37 72 -37 168v776q0 156 98.5 258.5t251.5 102.5q154 0 256 -107l82 174l78 -47l-102 -213q37 -70 37 -168v-776q0 -154 -98.5 -257t-252.5 -103q-158 0 -256 106l-82 -172zM338 315q0 -39 50 -77.5t95 -38.5q66 0 104 40.5t38 108.5v580h-4l-279 -590 q-4 -10 -4 -23zM342 543h4l279 592q4 10 4 20q0 41 -49.5 80t-96.5 39q-66 0 -103.5 -41t-37.5 -109v-581z" />
<glyph unicode="&#xd9;" horiz-adv-x="835" d="M80 332v1141h209v-1121q0 -154 129 -153q129 0 129 153v1121h209v-1141q0 -141 -98.5 -242.5t-239.5 -101.5t-239.5 101t-98.5 243zM145 1831h222l184 -291h-135z" />
<glyph unicode="&#xda;" horiz-adv-x="835" d="M80 332v1141h209v-1121q0 -154 129 -153q129 0 129 153v1121h209v-1141q0 -141 -98.5 -242.5t-239.5 -101.5t-239.5 101t-98.5 243zM285 1540l184 291h221l-270 -291h-135z" />
<glyph unicode="&#xdb;" horiz-adv-x="835" d="M80 332v1141h209v-1121q0 -154 129 -153q129 0 129 153v1121h209v-1141q0 -141 -98.5 -242.5t-239.5 -101.5t-239.5 101t-98.5 243zM121 1540l201 291h192l201 -291h-160l-137 197l-137 -197h-160z" />
<glyph unicode="&#xdc;" horiz-adv-x="929" d="M127 332v1141h209v-1121q0 -154 129 -153q129 0 129 153v1121h209v-1141q0 -141 -98.5 -242.5t-239.5 -101.5t-239.5 101t-98.5 243zM207 1565v211h184v-211h-184zM539 1565v211h184v-211h-184z" />
<glyph unicode="&#xdd;" horiz-adv-x="880" d="M49 1473h221l168 -586h4l168 586h221q-80 -211 -157 -422q-98 -266 -129 -428q-14 -76 -15 -197q0 -76 7.5 -223.5t7.5 -202.5h-209q0 55 7 202.5t7 223.5q0 121 -14 197q-33 162 -131 428zM307 1540l185 291h221l-271 -291h-135z" />
<glyph unicode="&#xde;" horiz-adv-x="749" d="M37 0v1473h209v-256q264 0 366.5 -92.5t102.5 -356.5t-107 -358q-98 -90 -362 -91v-319h-209zM246 518h100q117 0 150 72q22 43 22 176q0 129 -20 174q-33 78 -144 78h-108v-500z" />
<glyph unicode="&#xdf;" horiz-adv-x="864" d="M119 0v1143q0 150 80 241q84 100 229 101q315 0 315 -377q0 -102 -18 -150q-25 -57 -102 -106q121 -66 120 -211v-365q0 -158 -70.5 -223t-228.5 -65v198q90 -2 91 105v393q0 72 -91 70v186q90 -2 91 80v166q0 100 -99 100q-109 0 -108 -182v-1104h-209z" />
<glyph unicode="&#xe0;" horiz-adv-x="743" d="M53 266q0 209 82 285q72 68 254 67q41 0 94 -2v111q0 123 -104 123q-45 0 -78 -29.5t-41 -75.5h-203q8 141 95.5 228.5t226.5 87.5q145 0 229 -91t84 -239v-731h-209v109h-4q-86 -121 -200 -121q-225 0 -226 278zM109 1479h221l184 -291h-135zM262 307q0 -133 109 -133 q112 0 112 133v144q-35 6 -57 6q-164 0 -164 -150z" />
<glyph unicode="&#xe1;" horiz-adv-x="743" d="M53 266q0 209 82 285q72 68 254 67q41 0 94 -2v111q0 123 -104 123q-45 0 -78 -29.5t-41 -75.5h-203q8 141 95.5 228.5t226.5 87.5q145 0 229 -91t84 -239v-731h-209v109h-4q-86 -121 -200 -121q-225 0 -226 278zM248 1188l184 291h221l-270 -291h-135zM262 307 q0 -133 109 -133q112 0 112 133v144q-35 6 -57 6q-164 0 -164 -150z" />
<glyph unicode="&#xe2;" horiz-adv-x="743" d="M53 266q0 209 82 285q72 68 254 67q41 0 94 -2v111q0 123 -104 123q-45 0 -78 -29.5t-41 -75.5h-203q8 141 95.5 228.5t226.5 87.5q145 0 229 -91t84 -239v-731h-209v109h-4q-86 -121 -200 -121q-225 0 -226 278zM84 1188l201 291h192l201 -291h-160l-137 196l-137 -196 h-160zM262 307q0 -133 109 -133q112 0 112 133v144q-35 6 -57 6q-164 0 -164 -150z" />
<glyph unicode="&#xe3;" horiz-adv-x="743" d="M25 1206q45 229 206 230q49 0 147.5 -41t147.5 -41q86 0 90 92h105q-45 -229 -207 -229q-49 0 -149.5 40.5t-145.5 40.5q-88 0 -90 -92h-104zM45 266q0 209 82 285q72 68 254 67q41 0 94 -2v111q0 123 -104 123q-45 0 -78 -29.5t-41 -75.5h-203q8 141 95 228.5t227 87.5 q145 0 229 -91t84 -239v-731h-209v109h-4q-86 -121 -201 -121q-225 0 -225 278zM254 307q0 -133 108 -133q113 0 113 133v144q-35 6 -57 6q-164 0 -164 -150z" />
<glyph unicode="&#xe4;" horiz-adv-x="743" d="M53 266q0 209 82 285q72 68 254 67q41 0 94 -2v111q0 123 -104 123q-45 0 -78 -29.5t-41 -75.5h-203q8 141 95.5 228.5t226.5 87.5q145 0 229 -91t84 -239v-731h-209v109h-4q-86 -121 -200 -121q-225 0 -226 278zM123 1212v211h184v-211h-184zM262 307q0 -133 109 -133 q112 0 112 133v144q-35 6 -57 6q-164 0 -164 -150zM455 1212v211h184v-211h-184z" />
<glyph unicode="&#xe5;" horiz-adv-x="743" d="M53 266q0 209 82 285q72 68 254 67q41 0 94 -2v111q0 123 -104 123q-45 0 -78 -29.5t-41 -75.5h-203q8 141 95.5 228.5t226.5 87.5q145 0 229 -91t84 -239v-731h-209v109h-4q-86 -121 -200 -121q-225 0 -226 278zM172 1366q0 86 61.5 147.5t147.5 61.5q84 0 146.5 -62.5 t62.5 -146.5q0 -86 -61.5 -148.5t-147.5 -62.5t-147.5 62.5t-61.5 148.5zM256 1366q0 -53 36 -90t89 -37q51 0 88 37t37 90q0 51 -37 88t-88 37q-53 0 -89 -37t-36 -88zM262 307q0 -133 109 -133q112 0 112 133v144q-35 6 -57 6q-164 0 -164 -150z" />
<glyph unicode="&#xe6;" horiz-adv-x="1241" d="M94 266q0 209 82 285q72 68 254 67q41 0 94 -2v111q0 123 -104 123q-45 0 -78 -29.5t-41 -75.5h-203q10 139 97.5 227.5t224.5 88.5q121 0 207 -74q84 74 209 74q139 0 225 -93.5t86 -232.5v-291h-414v-143q0 -102 103 -102q94 0 102 104h209q0 -135 -88 -225t-223 -90 q-197 0 -273 149q-74 -150 -244 -149q-225 0 -225 278zM303 307q0 -133 109 -133q112 0 112 133v144q-33 6 -57 6q-164 0 -164 -150zM733 610h205v121q0 119 -102 119t-103 -119v-121z" />
<glyph unicode="&#xe7;" horiz-adv-x="733" d="M55 352v344q0 365 312 365q141 0 229 -96q82 -94 82 -238h-209q0 123 -102 123t-103 -119v-430q0 -102 103 -102q94 0 102 104h209q0 -123 -74 -211t-196 -100l-89 -117l64 4q74 4 124 -38t50 -115q0 -92 -82 -144q-72 -45 -170 -45q-84 0 -190 39l35 86q80 -31 133 -31 q111 0 110 86q0 76 -98 76q-39 0 -74 -12l-35 41l129 170q-260 37 -260 360z" />
<glyph unicode="&#xe8;" horiz-adv-x="722" d="M51 352v344q0 365 311 365q139 0 225.5 -92t86.5 -234v-291h-414v-143q0 -102 102 -102q92 0 103 104h209q0 -137 -88 -226t-224 -89q-311 0 -311 364zM90 1479h221l185 -291h-136zM260 610h205v121q0 119 -103 119q-102 0 -102 -119v-121z" />
<glyph unicode="&#xe9;" horiz-adv-x="722" d="M51 352v344q0 365 311 365q139 0 225.5 -92t86.5 -234v-291h-414v-143q0 -102 102 -102q92 0 103 104h209q0 -137 -88 -226t-224 -89q-311 0 -311 364zM229 1188l185 291h221l-270 -291h-136zM260 610h205v121q0 119 -103 119q-102 0 -102 -119v-121z" />
<glyph unicode="&#xea;" horiz-adv-x="722" d="M51 352v344q0 365 311 365q139 0 225.5 -92t86.5 -234v-291h-414v-143q0 -102 102 -102q92 0 103 104h209q0 -137 -88 -226t-224 -89q-311 0 -311 364zM66 1188l200 291h193l200 -291h-159l-138 196l-137 -196h-159zM260 610h205v121q0 119 -103 119q-102 0 -102 -119 v-121z" />
<glyph unicode="&#xeb;" horiz-adv-x="722" d="M51 352v344q0 365 311 365q139 0 225.5 -92t86.5 -234v-291h-414v-143q0 -102 102 -102q92 0 103 104h209q0 -137 -88 -226t-224 -89q-311 0 -311 364zM104 1212v211h185v-211h-185zM260 610h205v121q0 119 -103 119q-102 0 -102 -119v-121zM436 1212v211h185v-211h-185z " />
<glyph unicode="&#xec;" horiz-adv-x="337" d="M-35 1479h221l185 -291h-135zM133 0v1049h209v-1049h-209z" />
<glyph unicode="&#xed;" horiz-adv-x="337" d="M-35 1188l185 291h221l-271 -291h-135zM-6 0v1049h209v-1049h-209z" />
<glyph unicode="&#xee;" horiz-adv-x="337" d="M-129 1188l201 291h192l201 -291h-160l-137 196l-137 -196h-160zM63 0v1049h209v-1049h-209z" />
<glyph unicode="&#xef;" horiz-adv-x="337" d="M-90 1212v211h184v-211h-184zM63 0v1049h209v-1049h-209zM242 1212v211h184v-211h-184z" />
<glyph unicode="&#xf0;" horiz-adv-x="817" d="M98 352v344q0 365 312 365q61 0 98 -47l4 4q-37 154 -96 229l-152 -71l-57 81l141 66q-57 51 -158 90l170 90q92 -33 164 -96l140 66l57 -82l-129 -62q129 -170 129 -485v-492q0 -365 -311 -364q-311 0 -312 364zM307 319q0 -121 103 -120q102 -1 102 120v412 q0 119 -102 119t-103 -119v-412z" />
<glyph unicode="&#xf1;" horiz-adv-x="759" d="M33 1206q45 229 207 230q49 0 147 -41t148 -41q86 0 90 92h104q-45 -229 -207 -229q-49 0 -149.5 40.5t-145.5 40.5q-88 0 -90 -92h-104zM68 0v1049h208v-101h5q74 113 196 113q104 0 162 -78q53 -68 53 -178v-805h-209v727q0 123 -102 123q-104 0 -105 -145v-705h-208z " />
<glyph unicode="&#xf2;" horiz-adv-x="729" d="M53 352v344q0 365 312 365q311 0 311 -365v-344q0 -365 -311 -364q-311 0 -312 364zM92 1479h221l185 -291h-136zM262 319q0 -121 103 -120q102 -1 102 120v412q0 119 -102 119t-103 -119v-412z" />
<glyph unicode="&#xf3;" horiz-adv-x="729" d="M53 352v344q0 365 312 365q311 0 311 -365v-344q0 -365 -311 -364q-311 0 -312 364zM231 1188l185 291h221l-270 -291h-136zM262 319q0 -121 103 -120q102 -1 102 120v412q0 119 -102 119t-103 -119v-412z" />
<glyph unicode="&#xf4;" horiz-adv-x="729" d="M53 352v344q0 365 312 365q311 0 311 -365v-344q0 -365 -311 -364q-311 0 -312 364zM68 1188l200 291h193l201 -291h-160l-137 196l-138 -196h-159zM262 319q0 -121 103 -120q102 -1 102 120v412q0 119 -102 119t-103 -119v-412z" />
<glyph unicode="&#xf5;" horiz-adv-x="729" d="M16 1206q45 229 207 230q51 0 149.5 -41t145.5 -41q88 0 90 92h105q-43 -229 -207 -229q-49 0 -148.5 40.5t-146.5 40.5q-86 0 -90 -92h-105zM53 352v344q0 365 312 365q311 0 311 -365v-344q0 -365 -311 -364q-311 0 -312 364zM262 319q0 -121 103 -120q102 -1 102 120 v412q0 119 -102 119t-103 -119v-412z" />
<glyph unicode="&#xf6;" horiz-adv-x="729" d="M53 352v344q0 365 312 365q311 0 311 -365v-344q0 -365 -311 -364q-311 0 -312 364zM106 1212v211h185v-211h-185zM262 319q0 -121 103 -120q102 -1 102 120v412q0 119 -102 119t-103 -119v-412zM438 1212v211h185v-211h-185z" />
<glyph unicode="&#xf7;" horiz-adv-x="1146" d="M55 440v166h1037v-166h-1037zM442 94q0 55 39 94t92 39q55 0 93.5 -39t38.5 -94q0 -53 -39 -92t-93 -39q-53 0 -92 39t-39 92zM442 952q0 53 39 92t92 39t92.5 -39t39.5 -92q0 -55 -38 -94t-94 -39q-53 0 -92 39t-39 94z" />
<glyph unicode="&#xf8;" d="M49 -25l101 172q-41 82 -41 181v393q0 147 82.5 243.5t228.5 96.5q133 0 217 -86l84 141l70 -43l-101 -172q41 -82 41 -180v-393q0 -147 -84 -243.5t-227 -96.5q-135 0 -217 86l-84 -142zM317 432h5l194 338q-12 80 -96 80q-102 0 -103 -119v-299zM324 279q12 -80 96 -80 q102 -1 102 120v297h-4z" />
<glyph unicode="&#xf9;" horiz-adv-x="874" d="M125 244v805h209v-725q0 -125 102 -125q104 0 105 145v705h209v-1049h-209v100h-4q-74 -113 -197 -112q-106 0 -164 78q-51 68 -51 178zM166 1479h221l184 -291h-135z" />
<glyph unicode="&#xfa;" horiz-adv-x="874" d="M125 244v805h209v-725q0 -125 102 -125q104 0 105 145v705h209v-1049h-209v100h-4q-74 -113 -197 -112q-106 0 -164 78q-51 68 -51 178zM305 1188l184 291h222l-271 -291h-135z" />
<glyph unicode="&#xfb;" horiz-adv-x="874" d="M125 244v805h209v-725q0 -125 102 -125q104 0 105 145v705h209v-1049h-209v100h-4q-74 -113 -197 -112q-106 0 -164 78q-51 68 -51 178zM141 1188l201 291h193l200 -291h-160l-137 196l-137 -196h-160z" />
<glyph unicode="&#xfc;" horiz-adv-x="874" d="M125 244v805h209v-725q0 -125 102 -125q104 0 105 145v705h209v-1049h-209v100h-4q-74 -113 -197 -112q-106 0 -164 78q-51 68 -51 178zM180 1212v211h185v-211h-185zM512 1212v211h184v-211h-184z" />
<glyph unicode="&#xfd;" horiz-adv-x="802" d="M39 1049h221l143 -654h5l141 654h215l-299 -1231q-35 -143 -121 -197q-74 -45 -225 -45v199h47q63 0 117 90q45 78 45 153q0 16 -4 29zM268 1188l185 291h221l-271 -291h-135z" />
<glyph unicode="&#xfe;" horiz-adv-x="841" d="M109 -424v1897h208v-519q94 106 199 107q135 0 184 -103q33 -70 33 -221v-399q0 -176 -24 -238q-45 -113 -195 -112q-121 0 -192 106h-5v-518h-208zM317 313q0 -47 29 -80.5t76 -33.5q102 0 102 125v383q0 143 -102 143q-51 0 -78 -39t-27 -92v-406z" />
<glyph unicode="&#xff;" horiz-adv-x="772" d="M2 1049h221l144 -654h4l141 654h215l-299 -1231q-35 -143 -121 -197q-74 -45 -225 -45v199h47q63 0 115 90q47 78 47 153q0 16 -4 29zM106 1212v211h185v-211h-185zM438 1212v211h185v-211h-185z" />
<glyph unicode="&#x152;" horiz-adv-x="1294" d="M90 338v797q0 145 84 243q88 106 229 107q121 0 175 -86h4v74h622v-199h-413v-432h360v-199h-360v-432h413v-211h-622v70h-4q-61 -82 -175 -82q-141 0 -229 106q-84 98 -84 244zM299 328q0 -63 39 -108.5t102 -45.5t102.5 45.5t39.5 108.5v819q0 63 -40 107t-102 44 q-61 0 -101 -44t-40 -107v-819z" />
<glyph unicode="&#x153;" horiz-adv-x="1232" d="M98 352v344q0 365 312 365q123 0 206 -70q80 70 207 70q139 0 225.5 -93.5t86.5 -232.5v-291h-414v-143q0 -102 102 -102q94 0 103 104h209q0 -137 -87 -226t-225 -89q-145 0 -215 71q-76 -72 -198 -71q-311 0 -312 364zM307 319q0 -121 103 -120q102 -1 102 120v412 q0 119 -102 119t-103 -119v-412zM721 610h205v121q0 119 -103 119q-102 0 -102 -119v-121z" />
<glyph unicode="&#x178;" d="M-2 1473h221l168 -586h4l168 586h221q-78 -211 -155 -422q-98 -266 -131 -428q-14 -76 -15 -197q0 -76 7.5 -223.5t7.5 -202.5h-209q0 55 7 202.5t7 223.5q0 121 -14 197q-31 162 -129 428q-78 211 -158 422zM131 1565v211h184v-211h-184zM463 1565v211h184v-211h-184z " />
<glyph unicode="&#x2c6;" horiz-adv-x="579" d="M-8 1188l201 291h192l201 -291h-160l-137 196l-137 -196h-160z" />
<glyph unicode="&#x2dc;" horiz-adv-x="655" d="M-20 1206q45 229 206 230q49 0 147.5 -41t147.5 -41q86 0 90 92h105q-45 -229 -207 -229q-49 0 -149.5 40.5t-145.5 40.5q-88 0 -90 -92h-104z" />
<glyph unicode="&#x2000;" horiz-adv-x="968" />
<glyph unicode="&#x2001;" horiz-adv-x="1937" />
<glyph unicode="&#x2002;" horiz-adv-x="968" />
<glyph unicode="&#x2003;" horiz-adv-x="1937" />
<glyph unicode="&#x2004;" horiz-adv-x="645" />
<glyph unicode="&#x2005;" horiz-adv-x="484" />
<glyph unicode="&#x2006;" horiz-adv-x="322" />
<glyph unicode="&#x2007;" horiz-adv-x="322" />
<glyph unicode="&#x2008;" horiz-adv-x="242" />
<glyph unicode="&#x2009;" horiz-adv-x="387" />
<glyph unicode="&#x200a;" horiz-adv-x="107" />
<glyph unicode="&#x2010;" horiz-adv-x="739" d="M61 467v211h617v-211h-617z" />
<glyph unicode="&#x2011;" horiz-adv-x="739" d="M61 467v211h617v-211h-617z" />
<glyph unicode="&#x2012;" horiz-adv-x="739" d="M61 467v211h617v-211h-617z" />
<glyph unicode="&#x2013;" horiz-adv-x="1153" d="M66 473v199h1024v-199h-1024z" />
<glyph unicode="&#x2014;" horiz-adv-x="2177" d="M66 473v199h2048v-199h-2048z" />
<glyph unicode="&#x2018;" horiz-adv-x="266" d="M29 1108v211l209 154v-365h-209z" />
<glyph unicode="&#x2019;" horiz-adv-x="266" d="M29 1108v365h209v-211z" />
<glyph unicode="&#x201a;" horiz-adv-x="458" d="M125 -154v365h209v-211z" />
<glyph unicode="&#x201c;" horiz-adv-x="479" d="M-8 1108v211l209 154v-365h-209zM279 1108v211l208 154v-365h-208z" />
<glyph unicode="&#x201d;" horiz-adv-x="479" d="M-8 1108v365h209v-211zM279 1108v365h208v-211z" />
<glyph unicode="&#x201e;" horiz-adv-x="663" d="M84 -154v365h209v-211zM371 -154v365h209v-211z" />
<glyph unicode="&#x2022;" horiz-adv-x="954" d="M113 737q0 152 106.5 259.5t257.5 107.5q150 0 257.5 -107.5t107.5 -259.5t-107.5 -260t-257.5 -108q-152 0 -258 108.5t-106 259.5z" />
<glyph unicode="&#x2026;" horiz-adv-x="1912" d="M170 0v211h209v-211h-209zM852 0v211h209v-211h-209zM1534 0v211h209v-211h-209z" />
<glyph unicode="&#x202f;" horiz-adv-x="387" />
<glyph unicode="&#x2039;" horiz-adv-x="575" d="M80 573l416 418v-211l-207 -207l207 -206v-211z" />
<glyph unicode="&#x203a;" horiz-adv-x="550" d="M68 156v211l206 206l-206 207v211l415 -418z" />
<glyph unicode="&#x205f;" horiz-adv-x="484" />
<glyph unicode="&#x2122;" horiz-adv-x="1949" d="M117 1335v138h667v-138h-260v-714h-147v714h-260zM887 621v852h233l240 -623l239 623h234v-852h-147v714h-5l-280 -714h-84l-279 714h-4v-714h-147z" />
<glyph unicode="&#x25fc;" horiz-adv-x="1044" d="M0 0v1044h1044v-1044h-1044z" />
</font>
</defs>
</svg>
